<?xml version="1.0" encoding="UTF-8"?>
<svg version="1.1" xmlns="http://www.w3.org/2000/svg" width="512" height="512">
<path d="M0 0 C4.09558589 0.01741268 8.18979791 -0.00665621 12.28523159 -0.0414896 C15.46720085 -0.0634316 18.64883701 -0.06203417 21.83085823 -0.05372429 C23.34230143 -0.0529077 24.85376976 -0.05971504 26.36514091 -0.07449532 C28.46549716 -0.09194114 30.56331971 -0.07741898 32.66357422 -0.0546875 C33.85345444 -0.05372574 35.04333466 -0.05276398 36.26927185 -0.05177307 C40.46455249 0.78166325 41.92018211 2.14660612 44.43139648 5.57641602 C45.04612732 8.77027893 45.04612732 8.77027893 45.03076172 12.41455078 C45.03470444 13.08185211 45.03864716 13.74915344 45.04270935 14.43667603 C45.04939454 16.631168 45.0203172 18.82355474 44.98999023 21.01782227 C44.98573728 22.54808652 44.98341124 24.07835723 44.98292542 25.60862732 C44.97676851 28.81067283 44.95410986 32.01201646 44.91845703 35.21386719 C44.87314671 39.31521478 44.8584285 43.41592801 44.85472012 47.51750278 C44.85028869 50.67541237 44.8349805 53.83318926 44.81584358 56.99104118 C44.80697426 58.50328419 44.80023802 60.01554127 44.79568291 61.52780342 C44.78662533 63.64133547 44.76422338 65.75429848 44.73779297 67.86767578 C44.72715317 69.0694899 44.71651337 70.27130402 44.70555115 71.50953674 C44.43831535 74.49901689 44.17601771 76.15873196 42.43139648 78.57641602 C39.65436269 80.41979662 37.42427654 80.83090268 34.12866211 80.86352539 C32.86584412 80.88364685 32.86584412 80.88364685 31.57751465 80.9041748 C30.67335815 80.9094519 29.76920166 80.914729 28.83764648 80.92016602 C27.89514038 80.93478882 26.95263428 80.94941162 25.98156738 80.96447754 C22.96488716 81.01093783 19.94826968 81.04511066 16.93139648 81.07641602 C-4.63552302 79.88736113 -4.63552302 79.88736113 -23.56860352 87.57641602 C-26.76636257 92.75899103 -27.66521189 97.6317646 -27.77392578 103.64208984 C-27.793871 104.62272903 -27.81381622 105.60336823 -27.83436584 106.61372375 C-27.85107834 107.65973251 -27.86779083 108.70574127 -27.88500977 109.78344727 C-27.91618141 111.40424446 -27.91618141 111.40424446 -27.94798279 113.05778503 C-28.01324388 116.50143213 -28.07225427 119.94515396 -28.13110352 123.38891602 C-28.17431102 125.7268143 -28.21792603 128.06470508 -28.26196289 130.40258789 C-28.36890123 136.1271188 -28.47071078 141.85172366 -28.56860352 147.57641602 C-27.76538162 147.56753357 -26.96215973 147.55865112 -26.13459778 147.54949951 C-18.55737491 147.46928289 -10.98035852 147.40841607 -3.40282154 147.36916733 C0.49270459 147.34831055 4.38787926 147.32002871 8.28320312 147.2746582 C12.04389706 147.23113093 15.80425339 147.20726454 19.56517982 147.19690704 C20.99851101 147.1895279 22.43182413 147.17511781 23.86501122 147.15349579 C25.87548102 147.12437644 27.88629203 147.12278139 29.89697266 147.12231445 C31.04058762 147.11343201 32.18420258 147.10454956 33.36247253 147.09539795 C37.14613555 147.68844304 38.7826324 148.84462652 41.43139648 151.57641602 C42.90771228 154.94040175 42.56515212 158.65681039 42.57666016 162.28515625 C42.58001877 162.95070526 42.58337738 163.61625427 42.58683777 164.30197144 C42.59631633 166.49633667 42.59828923 168.69062535 42.59936523 170.88500977 C42.60257966 172.41431204 42.60594387 173.94361401 42.60945129 175.47291565 C42.61543459 178.67644972 42.61729198 181.87995683 42.61669922 185.08349609 C42.61659757 189.1835885 42.63025608 193.28350784 42.64747143 197.38355923 C42.65860183 200.541456 42.66061812 203.69931104 42.66008949 206.85722542 C42.66126779 208.36865905 42.66568117 209.88009383 42.67342186 211.3915081 C42.68324412 213.50722183 42.68033523 215.6225612 42.67431641 217.73828125 C42.67574142 218.94089096 42.67716644 220.14350067 42.67863464 221.3825531 C42.4259603 224.64664152 42.05918496 226.74057073 40.43139648 229.57641602 C36.55334707 232.46031075 33.7724265 232.94529785 28.98876953 232.91699219 C27.70781906 232.91676559 26.42686859 232.916539 25.10710144 232.91630554 C23.71910244 232.90098794 22.33110705 232.88533999 20.94311523 232.86938477 C19.51537014 232.86378527 18.08761926 232.85951684 16.65986633 232.85652161 C12.9131156 232.84510051 9.16671712 232.81565742 5.42010498 232.78240967 C1.59253707 232.75164943 -2.23508809 232.7380036 -6.06274414 232.72290039 C-13.56485736 232.69078463 -21.06668097 232.63962198 -28.56860352 232.57641602 C-28.56675993 233.45309527 -28.56491634 234.32977453 -28.56301689 235.23301983 C-28.51886345 256.55675361 -28.4857594 277.88047952 -28.46497917 299.20424938 C-28.45466312 309.51622852 -28.44059647 319.82817716 -28.41772461 330.14013672 C-28.39780084 339.12720409 -28.38488947 348.11424937 -28.38042653 357.10133821 C-28.37781744 361.86067426 -28.37167805 366.61994711 -28.3571434 371.37926292 C-28.34357552 375.85827576 -28.33937928 380.33719934 -28.34238815 384.81623077 C-28.34183764 386.46055651 -28.33785546 388.10488522 -28.33019257 389.74919319 C-28.32024369 391.99401263 -28.32263434 394.23849492 -28.32809448 396.48332214 C-28.3262509 397.73972598 -28.32440731 398.99612982 -28.32250786 400.2906065 C-28.56383926 403.5128048 -29.1088392 405.71132463 -30.56860352 408.57641602 C-33.93019379 411.18680467 -37.83909887 410.87887244 -41.91992188 410.8828125 C-42.65374588 410.89113602 -43.38756989 410.89945953 -44.14363098 410.90803528 C-46.56529062 410.93209726 -48.98668083 410.94090188 -51.40844727 410.94750977 C-53.09469177 410.95647781 -54.78093547 410.96559969 -56.46717834 410.97486877 C-60.00027398 410.99135013 -63.53327493 410.99905753 -67.06640625 411.00195312 C-71.59054735 411.00734131 -76.11379743 411.04504218 -80.63768673 411.09069729 C-84.11987043 411.12045661 -87.60183905 411.1276764 -91.08413887 411.12867928 C-92.75190889 411.13288254 -94.41967949 411.14532125 -96.08732414 411.16619682 C-98.42151158 411.19309458 -100.75362667 411.188293 -103.08789062 411.17578125 C-104.11748398 411.19803268 -104.11748398 411.19803268 -105.1678772 411.22073364 C-108.72885117 411.16645673 -110.41726646 410.69451615 -113.2472496 408.48605919 C-116.15044282 404.84712405 -116.18660871 403.0222497 -116.1698761 398.40739441 C-116.17414822 397.69666773 -116.17842035 396.98594104 -116.18282193 396.25367719 C-116.19104248 393.87778197 -116.1635856 391.50366155 -116.13623047 389.12792969 C-116.13481978 387.42278078 -116.13561238 385.71762883 -116.13844299 384.01248169 C-116.13987775 379.38662601 -116.11047837 374.76141839 -116.07557321 370.13571334 C-116.04431968 365.30041396 -116.04137976 360.46509977 -116.03544617 355.62971497 C-116.01990478 346.47471062 -115.97887227 337.32000476 -115.92869872 328.16513187 C-115.87281449 317.74203997 -115.84532106 307.31893383 -115.82022154 296.89572942 C-115.76795672 275.45579168 -115.68000863 254.01612265 -115.56860352 232.57641602 C-116.58551521 232.58307785 -116.58551521 232.58307785 -117.62297058 232.58987427 C-124.67945244 232.63412387 -131.73589486 232.66428931 -138.79248047 232.6862793 C-141.4259603 232.69633632 -144.05942896 232.70998361 -146.69287109 232.72729492 C-150.47829952 232.75155591 -154.26358028 232.76290222 -158.04907227 232.77172852 C-159.2263237 232.78205109 -160.40357513 232.79237366 -161.61650085 232.80300903 C-162.71726456 232.8031601 -163.81802826 232.80331116 -164.95214844 232.8034668 C-166.40109749 232.81012863 -166.40109749 232.81012863 -167.87931824 232.81692505 C-170.80352696 232.55540627 -172.93811147 231.86326151 -175.56860352 230.57641602 C-178.16238147 227.21142906 -177.82225687 223.60267481 -177.82739258 219.48461914 C-177.83089722 218.77844955 -177.83440186 218.07227997 -177.8380127 217.3447113 C-177.84679925 215.01559556 -177.84099184 212.68678474 -177.83422852 210.35766602 C-177.83557605 208.73628684 -177.83751733 207.11490806 -177.84002686 205.49353027 C-177.84297394 202.09745431 -177.83869384 198.70148364 -177.8293457 195.30541992 C-177.81795138 190.9541104 -177.82451307 186.60304761 -177.83649063 182.25174713 C-177.84372045 178.90429834 -177.84141615 175.55690796 -177.83623505 172.2094574 C-177.83490165 170.60509716 -177.83653541 169.0007316 -177.84119415 167.39637756 C-177.84627784 165.15351325 -177.83852351 162.91104755 -177.82739258 160.66821289 C-177.82580139 159.392323 -177.82421021 158.11643311 -177.8225708 156.80187988 C-177.58016519 153.72325289 -177.37991698 152.04532183 -175.56860352 149.57641602 C-172.43427473 147.39460551 -169.72735887 147.33245766 -165.97387695 147.34936523 C-164.29258698 147.34959183 -164.29258698 147.34959183 -162.57733154 147.349823 C-161.37304504 147.36014557 -160.16875854 147.37046814 -158.92797852 147.38110352 C-157.07200043 147.38534836 -157.07200043 147.38534836 -155.17852783 147.38967896 C-151.8970881 147.39897401 -148.61584598 147.41692896 -145.33447266 147.43908691 C-141.9828473 147.45958553 -138.63121344 147.46851877 -135.27954102 147.47875977 C-128.70915128 147.50081572 -122.13889356 147.5342902 -115.56860352 147.57641602 C-115.58192719 146.47792328 -115.58192719 146.47792328 -115.59552002 145.35723877 C-115.67662356 138.35863993 -115.73704382 131.36021154 -115.7758522 124.3612709 C-115.79647666 120.76545963 -115.82431464 117.1700456 -115.87036133 113.57446289 C-116.27010328 81.49038765 -112.46039314 53.72774776 -90.56860352 28.57641602 C-90.06200195 27.97442383 -89.55540039 27.37243164 -89.03344727 26.75219727 C-66.08768855 1.57641596 -31.58474284 -0.13917769 0 0 Z " fill="#3C69D6" transform="translate(322.568603515625,50.423583984375)"/>
</svg>
