<?xml version="1.0" encoding="UTF-8"?>
<svg version="1.1" xmlns="http://www.w3.org/2000/svg" width="512" height="512">
<path d="M0 0 C1.23316452 0.00273422 1.23316452 0.00273422 2.49124146 0.00552368 C16.64117608 0.05799351 30.47470164 0.88143357 44.4375 3.3125 C45.35853516 3.4681543 46.27957031 3.62380859 47.22851562 3.78417969 C87.29717156 10.81795566 125.54827628 28.13429202 157.4375 53.3125 C158.25992187 53.94285156 159.08234375 54.57320312 159.9296875 55.22265625 C175.18063954 67.08721478 189.68113353 80.97026576 201.4375 96.3125 C201.95570313 96.9813623 202.47390625 97.65022461 203.0078125 98.33935547 C215.50541205 114.54985488 225.80563988 131.75997972 234.4375 150.3125 C234.76314941 151.00682129 235.08879883 151.70114258 235.42431641 152.41650391 C244.90576891 172.91881587 251.12850345 194.98514922 254.4375 217.3125 C254.61337646 218.4269751 254.78925293 219.5414502 254.97045898 220.68969727 C256.65346281 232.416844 256.79485985 244.04207406 256.75 255.875 C256.74784485 256.89573608 256.7456897 257.91647217 256.74346924 258.96813965 C256.69380099 273.61079998 256.38329688 287.92238899 253.4375 302.3125 C253.24414062 303.30910645 253.05078125 304.30571289 252.8515625 305.33251953 C243.67228744 351.78843397 222.74304139 394.58563598 190.4375 429.3125 C189.24528787 430.6834163 188.05758001 432.05826624 186.875 433.4375 C180.87238312 440.29174673 174.44121299 446.28685087 167.32421875 451.9765625 C165.4434651 453.49847141 163.58981132 455.05469301 161.76953125 456.6484375 C152.67141819 464.57880968 142.69191082 470.98526644 132.4375 477.3125 C131.74640137 477.73950195 131.05530273 478.16650391 130.34326172 478.60644531 C90.55325523 502.8508216 90.55325523 502.8508216 71.4375 500.3125 C67.86133422 498.97143783 66.82838899 497.94621041 64.83555603 494.71542358 C63.1904678 490.71121387 63.02525935 487.24387924 63.06860352 482.99072266 C63.0629538 481.76974884 63.0629538 481.76974884 63.05718994 480.52410889 C63.05077457 478.76285577 63.05107141 477.00156801 63.05737495 475.24031448 C63.06653358 472.43759594 63.05620303 469.63553979 63.04075623 466.83285522 C63.0008153 458.86628214 62.99943577 450.89976209 63.00170898 442.93310547 C63.00176058 438.05010589 62.98234066 433.16745965 62.95237541 428.28455734 C62.94169544 425.55059199 62.95359904 422.81734534 62.96620178 420.08340454 C62.92745776 401.00639895 58.71891927 384.40138426 46.4375 369.3125 C51.3346218 368.30514381 56.2290154 367.32759044 61.1640625 366.5234375 C92.88055975 361.21907112 122.01245521 349.65605139 141.703125 323.27734375 C160.77392989 296.18077356 166.6271009 257.0848888 161.18359375 224.76171875 C157.30162404 206.81523051 149.86767249 191.61207264 138.4375 177.3125 C137.7775 176.3225 137.1175 175.3325 136.4375 174.3125 C137.08203125 171.37109375 137.08203125 171.37109375 138.25 167.75 C144.18147962 147.56959002 140.79703311 127.92510594 134.4375 108.3125 C114.50710212 105.14374156 90.94888899 116.24697651 75.015625 127.703125 C73.09992967 129.09370588 71.20472837 130.51356445 69.34375 131.9765625 C65.12877548 133.91409111 61.8969265 133.17064025 57.4375 132.3125 C56.67115234 132.16780273 55.90480469 132.02310547 55.11523438 131.87402344 C51.93531604 131.2420313 48.76795994 130.55761786 45.6015625 129.86132812 C30.72909433 126.73715949 15.9650633 125.93571005 0.8125 126 C-0.06102112 126.00149048 -0.93454224 126.00298096 -1.83453369 126.0045166 C-19.94866677 126.05992541 -37.27512957 127.72095622 -54.89794922 132.04199219 C-63.89460803 134.24341645 -63.89460803 134.24341645 -68.5859375 131.625 C-69.70911817 130.86292578 -70.82599246 130.09150124 -71.9375 129.3125 C-89.35855859 117.66537032 -111.92526618 104.87236962 -133.5625 108.3125 C-140.08394009 128.64844106 -143.97572342 149.45674391 -136.5 170.1875 C-135.21124761 174.66558912 -135.21124761 174.66558912 -136.6484375 177.3125 C-137.85217092 178.61972181 -139.10452831 179.88309676 -140.390625 181.109375 C-156.9979316 197.95563565 -161.81916875 224.61547634 -161.7409668 247.30883789 C-161.37189336 280.33640937 -153.04929181 313.10885765 -129.00683594 336.94140625 C-106.33033717 358.46798115 -75.26247196 364.34997304 -45.5625 369.3125 C-45.91441406 369.72757812 -46.26632813 370.14265625 -46.62890625 370.5703125 C-53.25176799 378.83592063 -58.18184339 387.962475 -59.9375 398.4375 C-61.0466882 403.81380044 -61.0466882 403.81380044 -63.2109375 405.90625 C-65.65198843 407.10408912 -67.90554999 407.72125563 -70.5625 408.3125 C-71.7071875 408.60382813 -72.851875 408.89515625 -74.03125 409.1953125 C-90.10799715 412.88233509 -104.6744056 412.37974864 -119.10546875 403.89453125 C-128.58434876 397.79127782 -134.61533297 388.98526597 -140.625 379.5625 C-147.21188375 369.61935668 -156.04952994 363.45428748 -167 358.875 C-177.20654413 357.23523087 -177.20654413 357.23523087 -186.5625 360.3125 C-185.26328226 364.28458757 -183.94369582 366.19174658 -180.5625 368.625 C-179.75941406 369.22441406 -178.95632812 369.82382812 -178.12890625 370.44140625 C-176.42972787 371.68022884 -174.72922371 372.91723518 -173.02734375 374.15234375 C-160.96198093 383.27129649 -154.31871055 396.19061474 -148.0078125 409.62109375 C-141.49304612 423.44296296 -132.23296897 431.33668259 -118.125 437.125 C-102.71993852 442.62164165 -86.45642833 442.49855219 -70.48046875 439.75 C-67.77911 439.344977 -65.28623519 439.28036492 -62.5625 439.3125 C-62.48633675 446.60816754 -62.4338524 453.90373224 -62.39770508 461.19970703 C-62.38263338 463.6808658 -62.36217254 466.16199799 -62.33618164 468.64306641 C-62.29972833 472.21263189 -62.28275708 475.78184461 -62.26953125 479.3515625 C-62.25404739 480.45803131 -62.23856354 481.56450012 -62.22261047 482.70449829 C-62.22139353 488.29331331 -62.26405504 492.55194881 -65.5625 497.3125 C-70.54471936 500.95802636 -75.62581919 500.95587408 -81.5625 500.3125 C-85.6666723 499.18150965 -89.5235384 497.60232562 -93.4375 495.9375 C-94.52885254 495.48487793 -95.62020508 495.03225586 -96.74462891 494.56591797 C-124.86449895 482.73007239 -150.18271541 467.13185924 -172.5625 446.3125 C-173.9334163 445.12028787 -175.30826624 443.93258001 -176.6875 442.75 C-183.56173042 436.72988238 -189.57784149 430.27477821 -195.2890625 423.140625 C-196.73761102 421.33865055 -198.20944922 419.55498128 -199.7109375 417.796875 C-210.69428916 404.87061998 -219.72004691 390.32363241 -227.5625 375.3125 C-227.95646973 374.56790527 -228.35043945 373.82331055 -228.75634766 373.05615234 C-240.28489556 350.99975094 -248.06294698 326.76193457 -252.5625 302.3125 C-252.80371582 301.11149658 -252.80371582 301.11149658 -253.04980469 299.88623047 C-258.92601796 269.84484733 -257.85121557 235.17672004 -251.5625 205.3125 C-251.34819336 204.28125 -251.13388672 203.25 -250.91308594 202.1875 C-240.74741723 154.83649582 -217.04604256 112.08635249 -183.5625 77.3125 C-183.06073242 76.78881836 -182.55896484 76.26513672 -182.04199219 75.72558594 C-175.28195743 68.70471383 -168.25811815 62.3157208 -160.5625 56.3125 C-159.57894531 55.52359375 -158.59539062 54.7346875 -157.58203125 53.921875 C-113.03868869 18.48089817 -56.74465067 -0.26409688 0 0 Z " fill="#000000" transform="translate(255.5625,5.6875)"/>
<path d="M0 0 C1.9375 1.25 1.9375 1.25 3 3 C2.9375 5.0625 2.9375 5.0625 2 7 C-0.60161177 9.02347582 -1.87477646 9.01227682 -5.1875 8.6875 C-8 8 -8 8 -9 7 C-9.25 4.5625 -9.25 4.5625 -9 2 C-5.53076119 -0.31282587 -4.07794425 -0.42478586 0 0 Z " fill="#000000" transform="translate(169,420)"/>
<path d="M0 0 C7.37042925 -0.36248013 7.37042925 -0.36248013 10.0625 1.1875 C11.38135516 3.73728665 10.7975116 5.31746098 10 8 C7.07723164 8.83507667 5.23982504 9.05450569 2.25 8.375 C0 7 0 7 -0.875 4.5 C-1 2 -1 2 0 0 Z " fill="#000000" transform="translate(140,417)"/>
<path d="M0 0 C5.97873264 0.11935764 5.97873264 0.11935764 7.08984375 1.23046875 C7.33984375 3.66796875 7.33984375 3.66796875 7.08984375 6.23046875 C3.41637604 8.67944722 1.42627976 8.54584591 -2.91015625 8.23046875 C-3.57015625 7.57046875 -4.23015625 6.91046875 -4.91015625 6.23046875 C-4.49785092 2.93202615 -3.64677106 0.43999896 0 0 Z " fill="#000000" transform="translate(183.91015625,417.76953125)"/>
<path d="M0 0 C3.125 0.25 3.125 0.25 4.9375 1.5 C6.28880988 3.49140403 6.89990429 4.84897905 7.125 7.25 C6.135 8.735 6.135 8.735 5.125 10.25 C-0.275 9.65 -0.275 9.65 -2.75 8 C-4.26556296 5.64245761 -4.16418735 3.99727982 -3.875 1.25 C-2.875 0.25 -2.875 0.25 0 0 Z " fill="#000000" transform="translate(125.875,405.75)"/>
<path d="M0 0 C2.625 0.3125 2.625 0.3125 4.4375 2 C5.80077792 4.65480436 5.87035485 6.36824183 5.625 9.3125 C3.375 10.0625 3.375 10.0625 0.625 10.3125 C-1.6875 8.6875 -1.6875 8.6875 -3.375 6.3125 C-3.6875 3.625 -3.6875 3.625 -3.375 1.3125 C-2.375 0.3125 -2.375 0.3125 0 0 Z " fill="#000000" transform="translate(113.375,390.6875)"/>
<path d="M0 0 C2.625 0.3125 2.625 0.3125 4.5 2.0625 C5.625 4.3125 5.625 4.3125 5.3125 6.5625 C4.9721875 7.42875 4.9721875 7.42875 4.625 8.3125 C2.315 7.9825 0.005 7.6525 -2.375 7.3125 C-2.75633299 5.3210944 -3.08825582 3.31970923 -3.375 1.3125 C-2.375 0.3125 -2.375 0.3125 0 0 Z " fill="#000000" transform="translate(103.375,377.6875)"/>
<path d="M0 0 C2.00720923 0.28674418 4.0085944 0.61866701 6 1 C6.625 2.875 6.625 2.875 7 5 C6.34 5.66 5.68 6.32 5 7 C2.375 6.625 2.375 6.625 0 6 C-0.38218767 4.34385343 -0.71395102 2.67542976 -1 1 C-0.67 0.67 -0.34 0.34 0 0 Z " fill="#000000" transform="translate(91,369)"/>
</svg>
