<?xml version="1.0" encoding="UTF-8"?>
<svg version="1.1" xmlns="http://www.w3.org/2000/svg" width="512" height="512">
<path d="M0 0 C1.08667969 0.54527344 2.17335937 1.09054688 3.29296875 1.65234375 C36.9407884 19.04822706 62.38527012 50.07729973 74 86 C85.0117004 125.45421295 82.17668617 167.00489006 62.08886719 203.10742188 C42.46124699 237.22251421 11.29036876 261.56016614 -26.56347656 272.35253906 C-32.65342367 273.97082962 -38.76167947 275.10676968 -45 276 C-45.82628906 276.13019531 -46.65257812 276.26039063 -47.50390625 276.39453125 C-84.02702591 281.15841642 -121.37638274 270.46128544 -150.875 248.8984375 C-153.30762903 246.9903441 -155.66406634 245.02500733 -158 243 C-159.22589844 241.95585938 -159.22589844 241.95585938 -160.4765625 240.890625 C-187.94427065 216.90952996 -204.4750115 184.05333049 -209 148 C-209.74602492 131.11949073 -210.41022171 113.40935321 -206 97 C-205.80132324 96.22624023 -205.60264648 95.45248047 -205.39794922 94.65527344 C-199.66807612 72.61994124 -189.83069084 53.32637769 -175 36 C-174.30261719 35.18015625 -173.60523438 34.3603125 -172.88671875 33.515625 C-148.63179106 5.7710896 -114.02311535 -11.84760074 -77.21484375 -14.85498047 C-50.43000552 -16.60874964 -23.97989708 -12.40983 0 0 Z " fill="#000000" transform="translate(209,125)"/>
<path d="M0 0 C1.24136719 0.60134766 1.24136719 0.60134766 2.5078125 1.21484375 C25.07053369 13.41568828 37.46350981 40.77573013 44.65625 64.1953125 C48.79033287 78.50236383 51.64344259 93.17251201 53 108 C53.11085938 109.19109375 53.22171875 110.3821875 53.3359375 111.609375 C57.09719322 158.98086599 50.09648274 213.18832996 19 251 C10.1339549 261.14151124 -1.17000159 269.02692945 -14.8671875 270.3828125 C-23.20401038 270.74821874 -30.4578235 269.74759237 -38 266 C-38.82757813 265.59910156 -39.65515625 265.19820313 -40.5078125 264.78515625 C-63.07053369 252.58431172 -75.46350981 225.22426987 -82.65625 201.8046875 C-86.79033287 187.49763617 -89.64344259 172.82748799 -91 158 C-91.11085938 156.80890625 -91.22171875 155.6178125 -91.3359375 154.390625 C-95.10553272 106.91410144 -88.16309734 52.89266986 -57 15 C-42.51800528 -1.5653694 -20.80716226 -10.33876131 0 0 Z " fill="#000000" transform="translate(394,123)"/>
<path d="M0 0 C3.91225813 0.87826203 5.23430998 2.26846935 7.625 5.40625 C16.1683516 18.96417754 18.89107229 36.30159461 21.25 51.875 C21.4821521 53.39299194 21.4821521 53.39299194 21.71899414 54.94165039 C22.22647735 58.51776509 22.66527066 62.097796 23.0625 65.6875 C23.15077057 66.48343567 23.23904114 67.27937134 23.32998657 68.09942627 C25.12605505 84.98534177 25.40719385 101.83204212 25.37817383 118.79296875 C25.3735622 121.70849113 25.38041286 124.62359425 25.39868164 127.5390625 C25.59978349 159.97497466 24.26733375 193.31170033 15.125 224.625 C14.89643311 225.41165039 14.66786621 226.19830078 14.43237305 227.00878906 C12.30056592 233.82294517 9.10624825 242.47519061 3.0625 246.6875 C-0.67758845 247.3241108 -2.29372023 247.12739944 -5.44140625 244.9765625 C-25.09487886 226.95319012 -24.67267434 181.19419218 -25.8236084 156.66918945 C-30.37228076 37.58465448 -30.37228076 37.58465448 -7.9375 4.6875 C-5.21068734 2.20741922 -3.6012934 0.8428559 0 0 Z " fill="#000000" transform="translate(486.9375,132.3125)"/>
</svg>
