<?xml version="1.0" encoding="UTF-8"?>
<svg version="1.1" xmlns="http://www.w3.org/2000/svg" width="512" height="512">
<path d="M0 0 C15.18 0 30.36 0 46 0 C46 45.21 46 90.42 46 137 C149.62 137 253.24 137 360 137 C360 91.79 360 46.58 360 0 C375.18 0 390.36 0 406 0 C406 60.39 406 120.78 406 183 C272.02 183 138.04 183 0 183 C0 122.61 0 62.22 0 0 Z " fill="#747474" transform="translate(42,329)"/>
<path d="M0 0 C4.46614744 0.56252052 7.91981941 1.70683142 11.9453125 3.703125 C13.09 4.26451172 14.2346875 4.82589844 15.4140625 5.40429688 C16.01766602 5.70456787 16.62126953 6.00483887 17.24316406 6.31420898 C20.49008655 7.92882418 23.74971796 9.51745857 27.0078125 11.109375 C27.67596985 11.43663574 28.3441272 11.76389648 29.03253174 12.10107422 C35.64373076 15.33203471 42.31511305 18.42432432 49 21.5 C59.16267835 26.18651262 69.25861049 30.99728748 79.32476807 35.88626099 C88.13312756 40.1619419 96.98293119 44.33810557 105.875 48.4375 C115.80530212 53.01641045 125.66801893 57.7147076 135.5 62.5 C146.50029169 67.85380808 157.55102229 73.07471991 168.66113281 78.19799805 C181.1799275 83.98205499 193.59336363 89.97983307 206 96 C203.54032705 104.2300844 200.03416938 111.92429174 196.47485352 119.72314453 C195.42889871 122.01887871 194.39481936 124.3197263 193.36132812 126.62109375 C192.6986232 128.08105008 192.03523676 129.5406973 191.37109375 131 C191.06272079 131.68843994 190.75434784 132.37687988 190.43663025 133.08618164 C188.22932655 137.88533673 188.22932655 137.88533673 186 139 C183.86344192 138.16753282 181.77143405 137.22040798 179.703125 136.23046875 C179.05528046 135.92317841 178.40743591 135.61588806 177.73995972 135.29928589 C175.57306234 134.26935601 173.41166756 133.22835625 171.25 132.1875 C169.71895988 131.45746994 168.18753978 130.72823627 166.65576172 129.99975586 C163.41742062 128.45843186 160.18113236 126.91290893 156.94628906 125.36425781 C152.15485118 123.07175899 147.35614172 120.79487113 142.5546875 118.5234375 C141.77915527 118.15654312 141.00362305 117.78964874 140.20458984 117.41163635 C138.63442 116.66888145 137.06422955 115.92617011 135.49401855 115.1835022 C132.29980342 113.67202304 129.10668534 112.15823416 125.91357422 110.64442444 C115.94712581 105.91955265 105.97470687 101.20740771 96 96.5 C82.82219343 90.28093923 69.65180651 84.04637308 56.48483276 77.80441284 C45.73835578 72.71051197 34.98346157 67.63493784 24.22000122 62.57702637 C22.09459713 61.5775931 19.96988848 60.57669836 17.84545898 59.57519531 C16.48291417 58.93293419 15.12036541 58.29068145 13.7578125 57.6484375 C13.10061722 57.33861938 12.44342194 57.02880127 11.76631165 56.70959473 C7.45310316 54.67833006 3.13080918 52.66767657 -1.1953125 50.6640625 C-3.3177942 49.6720587 -5.44019594 48.67988379 -7.5625 47.6875 C-8.5208374 47.24929932 -9.4791748 46.81109863 -10.46655273 46.35961914 C-11.75348022 45.75428345 -11.75348022 45.75428345 -13.06640625 45.13671875 C-14.1793103 44.62177856 -14.1793103 44.62177856 -15.31469727 44.09643555 C-17 43 -17 43 -18 40 C-16.98072353 37.32442278 -15.8933367 34.80612625 -14.66796875 32.2265625 C-14.31616043 31.46580414 -13.96435211 30.70504578 -13.60188293 29.92123413 C-12.47289562 27.48478397 -11.33060703 25.05485307 -10.1875 22.625 C-9.05805023 20.20100296 -7.93132149 17.77575816 -6.80525208 15.35018921 C-6.1033408 13.84085625 -5.39893077 12.33268211 -4.69169617 10.82583618 C-3.01888325 7.25340768 -1.41469298 3.68513784 0 0 Z " fill="#FF9800" transform="translate(184,168)"/>
<path d="M0 0 C4.52663556 2.46907394 8.16557585 5.60181286 12 9 C13.3418834 10.17642548 14.68434106 11.35219622 16.02734375 12.52734375 C16.69620605 13.11370605 17.36506836 13.70006836 18.05419922 14.30419922 C20.86500492 16.75386752 23.71008503 19.16153371 26.5625 21.5625 C31.10616394 25.39058229 35.62208226 29.24908631 40.125 33.125 C44.18620876 36.61823856 48.27518971 40.06448707 52.4375 43.4375 C57.54307465 47.58060991 62.49800053 51.8823045 67.45288086 56.20288086 C71.08737851 59.36465838 74.75520843 62.46850206 78.5 65.5 C83.53348541 69.57757127 88.42333309 73.80505915 93.30810547 78.05810547 C98.96264879 82.9787765 104.67472086 87.82781099 110.40722656 92.65722656 C113.10814802 94.93421431 115.80380307 97.2174219 118.5 99.5 C121.73698995 102.23981315 124.97453536 104.97895552 128.21484375 107.71484375 C133.27130934 111.9860772 138.31771626 116.26766974 143.33496094 120.58496094 C149.81124888 126.15675913 156.36433018 131.61816314 163 137 C165.06407933 138.68557747 167.12569712 140.37413591 169.1875 142.0625 C170.10917969 142.81660156 171.03085937 143.57070312 171.98046875 144.34765625 C172.64691406 144.89292969 173.31335938 145.43820313 174 146 C173.50847718 150.32958396 170.70672739 152.99886837 167.9375 156.125 C166.92863431 157.28945295 165.92082962 158.45482593 164.9140625 159.62109375 C164.41680664 160.19456543 163.91955078 160.76803711 163.40722656 161.35888672 C160.15885703 165.14714834 157.09612973 169.08744661 154 173 C152.50094414 174.87575492 151.00096151 176.75076961 149.5 178.625 C148.8296875 179.46289062 148.159375 180.30078125 147.46875 181.1640625 C146.74171875 182.07285156 146.74171875 182.07285156 146 183 C141.70554982 181.59160505 139.12953521 179.54145224 135.875 176.4375 C132.26643455 173.05401242 128.60294733 169.79286054 124.75 166.6875 C120.29366003 163.08814849 115.94392954 159.3866306 111.625 155.625 C105.3272634 150.14133777 98.9790197 144.72294029 92.59277344 139.34277344 C89.89185198 137.06578569 87.19619693 134.7825781 84.5 132.5 C81.26301005 129.76018685 78.02546464 127.02104448 74.78515625 124.28515625 C69.12729174 119.50591674 63.48917257 114.7055149 57.875 109.875 C53.81371255 106.38184894 49.72481413 102.93551604 45.5625 99.5625 C40.45692535 95.41939009 35.50199947 91.1176955 30.54711914 86.79711914 C26.91262149 83.63534162 23.24479157 80.53149794 19.5 77.5 C14.46651459 73.42242873 9.57666691 69.19494085 4.69189453 64.94189453 C0.61053628 61.39023347 -3.49189033 57.86628724 -7.625 54.375 C-8.14465332 53.93422119 -8.66430664 53.49344238 -9.19970703 53.03930664 C-11.99943428 50.66913729 -14.81892393 48.32723306 -17.6640625 46.01171875 C-18.26395996 45.51816895 -18.86385742 45.02461914 -19.48193359 44.51611328 C-20.63213294 43.57047852 -21.78844178 42.63221009 -22.95166016 41.70263672 C-25.8452745 39.31131697 -27.60647307 37.79543973 -28 34 C-26.32813576 31.68745785 -24.67913505 29.70417567 -22.75 27.625 C-21.6367616 26.37988948 -20.52615001 25.13242614 -19.41796875 23.8828125 C-18.84868652 23.24375977 -18.2794043 22.60470703 -17.69287109 21.94628906 C-14.56159214 18.34626659 -11.66258356 14.56731743 -8.74316406 10.79541016 C-5.9025049 7.13050131 -2.98650745 3.54747934 0 0 Z " fill="#FF9800" transform="translate(251,72)"/>
<path d="M0 0 C2.57794066 1.0275945 3.42775131 2.18350156 5.03442383 4.43359375 C5.86224365 5.57574341 5.86224365 5.57574341 6.70678711 6.7409668 C7.58246338 7.98293823 7.58246338 7.98293823 8.47583008 9.25 C9.09055176 10.10311768 9.70527344 10.95623535 10.33862305 11.83520508 C12.24781232 14.48778034 14.14317193 17.14988929 16.03833008 19.8125 C18.24189981 22.87844444 20.4528671 25.93902358 22.66333008 29 C23.19756592 29.74241943 23.73180176 30.48483887 24.28222656 31.24975586 C27.81177773 36.1471756 31.4020034 40.99394877 35.03833008 45.8125 C39.79265317 52.11252511 44.43602868 58.48547707 49.04443359 64.89282227 C54.72389322 72.78241123 60.49507305 80.60318749 66.2722168 88.42138672 C69.78145631 93.17249147 73.28294284 97.92931291 76.78588867 102.68505859 C79.71253757 106.65781489 82.64103782 110.62917846 85.57348633 114.59765625 C91.26797702 122.30789586 96.93706923 130.03419989 102.53833008 137.8125 C107.02709318 144.04469104 111.54677475 150.25284142 116.10083008 156.4375 C116.96430054 157.613125 116.96430054 157.613125 117.84521484 158.8125 C120.73000696 162.72882384 123.64538542 166.6155899 126.62426758 170.4609375 C127.18879639 171.19489746 127.7533252 171.92885742 128.33496094 172.68505859 C129.40504939 174.07246386 130.48363272 175.4533707 131.57177734 176.82666016 C132.8059289 178.43107823 133.93368781 180.11631225 135.03833008 181.8125 C133.78816918 185.5629827 132.47783827 186.20697787 129.28833008 188.5 C128.20898776 189.28348198 127.13097509 190.06879745 126.05395508 190.85546875 C125.43456055 191.30712402 124.81516602 191.7587793 124.17700195 192.22412109 C121.66200066 194.09199762 119.1858969 196.00611548 116.71020508 197.92578125 C115.77660156 198.64741455 114.84299805 199.36904785 113.88110352 200.11254883 C112.00078362 201.56768131 110.1237666 203.02709281 108.25024414 204.4909668 C107.3759375 205.16426025 106.50163086 205.83755371 105.60083008 206.53125 C104.81836914 207.13904297 104.0359082 207.74683594 103.22973633 208.37304688 C101.10597113 209.76806911 99.52202399 210.38534991 97.03833008 210.8125 C96.55759033 210.14383911 96.55759033 210.14383911 96.06713867 209.46166992 C87.47363341 197.5167888 78.78440354 185.64599046 70.03833008 173.8125 C62.61711512 163.77155114 55.22661202 153.71183596 47.93041992 143.57958984 C42.28114925 135.74372514 36.54520115 127.97257146 30.80444336 120.20361328 C27.87876905 116.24258838 24.95882702 112.27734283 22.03833008 108.3125 C20.87169117 106.72914621 19.7050245 105.14581288 18.53833008 103.5625 C16.20499674 100.39583333 13.87166341 97.22916667 11.53833008 94.0625 C10.96074951 93.27866943 10.38316895 92.49483887 9.78808594 91.68725586 C8.62212202 90.10481815 7.45626904 88.52229869 6.29052734 86.93969727 C3.36401564 82.96698113 0.43555474 78.99573006 -2.49682617 75.02734375 C-8.79567701 66.49886514 -15.0535727 57.94348254 -21.24975586 49.34008789 C-26.44325996 42.13197312 -31.69555128 34.96766721 -36.96166992 27.8125 C-32.79353956 23.40405993 -28.20791559 19.750414 -23.39916992 16.0625 C-22.60430176 15.45140381 -21.80943359 14.84030762 -20.99047852 14.21069336 C-19.39417382 12.98466553 -17.79686016 11.75995015 -16.19848633 10.53662109 C-14.20149275 8.99735361 -12.22445268 7.43705955 -10.25463867 5.86328125 C-9.19880094 5.03366087 -8.14282339 4.20421839 -7.08666992 3.375 C-6.18174805 2.65441406 -5.27682617 1.93382812 -4.34448242 1.19140625 C-1.96166992 -0.1875 -1.96166992 -0.1875 0 0 Z " fill="#FF9800" transform="translate(334.961669921875,0.1875)"/>
<path d="M0 0 C74.58 0 149.16 0 226 0 C226 15.51 226 31.02 226 47 C151.42 47 76.84 47 0 47 C0 31.49 0 15.98 0 0 Z " fill="#FF9700" transform="translate(132,374)"/>
<path d="M0 0 C10.83159902 1.62982133 21.50461458 3.95333833 32.20898438 6.25024414 C34.23374623 6.68263786 36.25855842 7.11479593 38.28341675 7.54673767 C43.75026542 8.71363428 49.21639737 9.88385616 54.68239403 11.05473638 C60.4109536 12.28130253 66.14014606 13.50490554 71.8692627 14.72886658 C81.47930571 16.7823808 91.08892101 18.83788615 100.69824219 20.89477539 C113.03698408 23.53589321 125.37639283 26.1738814 137.71602631 28.81083012 C148.33073935 31.07917457 158.94518786 33.34875587 169.55957222 35.6186378 C172.97086325 36.34810815 176.38218274 37.07744532 179.79350281 37.80677986 C185.14528483 38.95108155 190.49690256 40.09614864 195.84839249 41.24181557 C197.81399138 41.66251316 199.77964031 42.08297708 201.74534225 42.5031929 C204.42342532 43.07574659 207.10132404 43.64915456 209.7791748 44.22279358 C210.56087335 44.38971822 211.3425719 44.55664287 212.14795828 44.72862583 C215.44627291 45.4360469 218.73062684 46.16945913 222 47 C219.20586367 62.37982324 216.33005247 77.72640738 213 93 C201.39838894 91.44801042 190.02132773 88.97171667 178.5859375 86.51171875 C176.45177412 86.05556017 174.31753541 85.59975389 172.18322754 85.14427185 C166.43877694 83.91746852 160.69526929 82.68630365 154.95192719 81.45432281 C148.95173407 80.16799946 142.95071981 78.88552045 136.94970703 77.60302734 C135.13485463 77.2151643 135.13485463 77.2151643 133.28333855 76.81946564 C130.81752868 76.2924923 128.35171534 75.76553519 125.88589859 75.23859406 C122.13405095 74.43666135 118.38231087 73.63422691 114.63058472 72.83172607 C97.39376126 69.14580524 80.15169852 65.48518135 62.90625 61.83984375 C60.58614592 61.34918128 58.26604699 60.85849449 55.94595337 60.36778259 C47.06500064 58.48965008 38.18404688 56.61153345 29.30194092 54.73886108 C24.16796195 53.656411 19.0345106 52.57149347 13.90144348 51.48472786 C12.0205629 51.08703627 10.13947287 50.69033381 8.25816345 50.29467583 C5.70526558 49.75770078 3.15309238 49.21740748 0.60107422 48.67626953 C-0.14803034 48.5195814 -0.8971349 48.36289328 -1.66893959 48.20145702 C-6.77188937 47.11405531 -6.77188937 47.11405531 -9 46 C-7.5828128 35.78397733 -5.55621393 25.76184414 -3.375 15.6875 C-3.04653183 14.15697465 -2.7184048 12.62637604 -2.390625 11.09570312 C-1.59766725 7.39628192 -0.80014514 3.697873 0 0 Z " fill="#FF9800" transform="translate(146,271)"/>
</svg>
